<mxfile host="app.diagrams.net" agent="Mozilla/5.0 (Macintosh; Intel Mac OS X 10_15_7) AppleWebKit/605.1.15 (KHTML, like Gecko) Version/18.1 Safari/605.1.15" version="26.1.1">
  <diagram name="Page-1" id="apCitKqxxiAiO-mpGl-e">
    <mxGraphModel dx="838" dy="593" grid="1" gridSize="10" guides="1" tooltips="1" connect="1" arrows="1" fold="1" page="1" pageScale="1" pageWidth="850" pageHeight="1100" math="0" shadow="0">
      <root>
        <mxCell id="0" />
        <mxCell id="1" parent="0" />
        <mxCell id="Z2oQtGd8SD3cLE5cSnqB-24" style="edgeStyle=orthogonalEdgeStyle;rounded=0;orthogonalLoop=1;jettySize=auto;html=1;exitX=0.5;exitY=0;exitDx=0;exitDy=0;entryX=0;entryY=0.5;entryDx=0;entryDy=0;" edge="1" parent="1" source="Z2oQtGd8SD3cLE5cSnqB-1" target="Z2oQtGd8SD3cLE5cSnqB-2">
          <mxGeometry relative="1" as="geometry" />
        </mxCell>
        <mxCell id="Z2oQtGd8SD3cLE5cSnqB-25" style="edgeStyle=orthogonalEdgeStyle;rounded=0;orthogonalLoop=1;jettySize=auto;html=1;exitX=1;exitY=0.5;exitDx=0;exitDy=0;entryX=0;entryY=0.5;entryDx=0;entryDy=0;" edge="1" parent="1" source="Z2oQtGd8SD3cLE5cSnqB-1" target="Z2oQtGd8SD3cLE5cSnqB-3">
          <mxGeometry relative="1" as="geometry" />
        </mxCell>
        <mxCell id="Z2oQtGd8SD3cLE5cSnqB-26" style="edgeStyle=orthogonalEdgeStyle;rounded=0;orthogonalLoop=1;jettySize=auto;html=1;exitX=0.5;exitY=1;exitDx=0;exitDy=0;entryX=0;entryY=0.5;entryDx=0;entryDy=0;" edge="1" parent="1" source="Z2oQtGd8SD3cLE5cSnqB-1" target="Z2oQtGd8SD3cLE5cSnqB-4">
          <mxGeometry relative="1" as="geometry" />
        </mxCell>
        <mxCell id="Z2oQtGd8SD3cLE5cSnqB-1" value="Original video" style="rounded=1;whiteSpace=wrap;html=1;" vertex="1" parent="1">
          <mxGeometry x="40" y="240" width="80" height="40" as="geometry" />
        </mxCell>
        <mxCell id="Z2oQtGd8SD3cLE5cSnqB-20" style="edgeStyle=orthogonalEdgeStyle;rounded=0;orthogonalLoop=1;jettySize=auto;html=1;exitX=1;exitY=0.5;exitDx=0;exitDy=0;entryX=0;entryY=0.5;entryDx=0;entryDy=0;" edge="1" parent="1" source="Z2oQtGd8SD3cLE5cSnqB-2" target="Z2oQtGd8SD3cLE5cSnqB-6">
          <mxGeometry relative="1" as="geometry" />
        </mxCell>
        <mxCell id="Z2oQtGd8SD3cLE5cSnqB-2" value="Video" style="rounded=1;whiteSpace=wrap;html=1;" vertex="1" parent="1">
          <mxGeometry x="200" y="120" width="80" height="40" as="geometry" />
        </mxCell>
        <mxCell id="Z2oQtGd8SD3cLE5cSnqB-14" style="edgeStyle=orthogonalEdgeStyle;rounded=0;orthogonalLoop=1;jettySize=auto;html=1;exitX=1;exitY=0.5;exitDx=0;exitDy=0;entryX=0;entryY=0.5;entryDx=0;entryDy=0;" edge="1" parent="1" source="Z2oQtGd8SD3cLE5cSnqB-3" target="Z2oQtGd8SD3cLE5cSnqB-11">
          <mxGeometry relative="1" as="geometry" />
        </mxCell>
        <mxCell id="Z2oQtGd8SD3cLE5cSnqB-3" value="Audio" style="rounded=1;whiteSpace=wrap;html=1;" vertex="1" parent="1">
          <mxGeometry x="200" y="240" width="80" height="40" as="geometry" />
        </mxCell>
        <mxCell id="Z2oQtGd8SD3cLE5cSnqB-13" style="edgeStyle=orthogonalEdgeStyle;rounded=0;orthogonalLoop=1;jettySize=auto;html=1;exitX=1;exitY=0.5;exitDx=0;exitDy=0;entryX=0.5;entryY=1;entryDx=0;entryDy=0;" edge="1" parent="1" source="Z2oQtGd8SD3cLE5cSnqB-4" target="Z2oQtGd8SD3cLE5cSnqB-12">
          <mxGeometry relative="1" as="geometry" />
        </mxCell>
        <mxCell id="Z2oQtGd8SD3cLE5cSnqB-4" value="Metadata" style="rounded=1;whiteSpace=wrap;html=1;" vertex="1" parent="1">
          <mxGeometry x="200" y="360" width="80" height="40" as="geometry" />
        </mxCell>
        <mxCell id="Z2oQtGd8SD3cLE5cSnqB-19" style="edgeStyle=orthogonalEdgeStyle;rounded=0;orthogonalLoop=1;jettySize=auto;html=1;exitX=1;exitY=0.5;exitDx=0;exitDy=0;entryX=0;entryY=0.5;entryDx=0;entryDy=0;" edge="1" parent="1" source="Z2oQtGd8SD3cLE5cSnqB-6" target="Z2oQtGd8SD3cLE5cSnqB-8">
          <mxGeometry relative="1" as="geometry" />
        </mxCell>
        <mxCell id="Z2oQtGd8SD3cLE5cSnqB-6" value="Chunks" style="rounded=1;whiteSpace=wrap;html=1;" vertex="1" parent="1">
          <mxGeometry x="360" y="120" width="80" height="40" as="geometry" />
        </mxCell>
        <mxCell id="Z2oQtGd8SD3cLE5cSnqB-18" style="edgeStyle=orthogonalEdgeStyle;rounded=0;orthogonalLoop=1;jettySize=auto;html=1;exitX=1;exitY=0.5;exitDx=0;exitDy=0;" edge="1" parent="1" source="Z2oQtGd8SD3cLE5cSnqB-8" target="Z2oQtGd8SD3cLE5cSnqB-9">
          <mxGeometry relative="1" as="geometry" />
        </mxCell>
        <mxCell id="Z2oQtGd8SD3cLE5cSnqB-8" value="Message queue" style="rounded=1;whiteSpace=wrap;html=1;" vertex="1" parent="1">
          <mxGeometry x="520" y="120" width="80" height="40" as="geometry" />
        </mxCell>
        <mxCell id="Z2oQtGd8SD3cLE5cSnqB-17" style="edgeStyle=orthogonalEdgeStyle;rounded=0;orthogonalLoop=1;jettySize=auto;html=1;exitX=1;exitY=0.5;exitDx=0;exitDy=0;entryX=0;entryY=0.5;entryDx=0;entryDy=0;" edge="1" parent="1" source="Z2oQtGd8SD3cLE5cSnqB-9" target="Z2oQtGd8SD3cLE5cSnqB-10">
          <mxGeometry relative="1" as="geometry" />
        </mxCell>
        <mxCell id="Z2oQtGd8SD3cLE5cSnqB-9" value="Workers" style="rounded=1;whiteSpace=wrap;html=1;" vertex="1" parent="1">
          <mxGeometry x="680" y="120" width="80" height="40" as="geometry" />
        </mxCell>
        <mxCell id="Z2oQtGd8SD3cLE5cSnqB-16" style="edgeStyle=orthogonalEdgeStyle;rounded=0;orthogonalLoop=1;jettySize=auto;html=1;exitX=0.5;exitY=1;exitDx=0;exitDy=0;" edge="1" parent="1" source="Z2oQtGd8SD3cLE5cSnqB-10" target="Z2oQtGd8SD3cLE5cSnqB-12">
          <mxGeometry relative="1" as="geometry" />
        </mxCell>
        <mxCell id="Z2oQtGd8SD3cLE5cSnqB-10" value="Encoded chunks" style="rounded=1;whiteSpace=wrap;html=1;" vertex="1" parent="1">
          <mxGeometry x="840" y="120" width="80" height="40" as="geometry" />
        </mxCell>
        <mxCell id="Z2oQtGd8SD3cLE5cSnqB-15" style="edgeStyle=orthogonalEdgeStyle;rounded=0;orthogonalLoop=1;jettySize=auto;html=1;exitX=1;exitY=0.5;exitDx=0;exitDy=0;entryX=0;entryY=0.5;entryDx=0;entryDy=0;" edge="1" parent="1" source="Z2oQtGd8SD3cLE5cSnqB-11" target="Z2oQtGd8SD3cLE5cSnqB-12">
          <mxGeometry relative="1" as="geometry" />
        </mxCell>
        <mxCell id="Z2oQtGd8SD3cLE5cSnqB-11" value="Encoded audio" style="rounded=1;whiteSpace=wrap;html=1;" vertex="1" parent="1">
          <mxGeometry x="360" y="240" width="80" height="40" as="geometry" />
        </mxCell>
        <mxCell id="Z2oQtGd8SD3cLE5cSnqB-22" style="edgeStyle=orthogonalEdgeStyle;rounded=0;orthogonalLoop=1;jettySize=auto;html=1;exitX=1;exitY=0.5;exitDx=0;exitDy=0;entryX=0;entryY=0.5;entryDx=0;entryDy=0;" edge="1" parent="1" source="Z2oQtGd8SD3cLE5cSnqB-12" target="Z2oQtGd8SD3cLE5cSnqB-21">
          <mxGeometry relative="1" as="geometry" />
        </mxCell>
        <mxCell id="Z2oQtGd8SD3cLE5cSnqB-12" value="Storage" style="rounded=1;whiteSpace=wrap;html=1;" vertex="1" parent="1">
          <mxGeometry x="840" y="240" width="80" height="40" as="geometry" />
        </mxCell>
        <mxCell id="Z2oQtGd8SD3cLE5cSnqB-21" value="CDN" style="rounded=1;whiteSpace=wrap;html=1;" vertex="1" parent="1">
          <mxGeometry x="1000" y="240" width="80" height="40" as="geometry" />
        </mxCell>
        <mxCell id="Z2oQtGd8SD3cLE5cSnqB-23" value="Popular videos" style="text;html=1;align=center;verticalAlign=middle;whiteSpace=wrap;rounded=0;" vertex="1" parent="1">
          <mxGeometry x="920" y="280" width="80" height="40" as="geometry" />
        </mxCell>
      </root>
    </mxGraphModel>
  </diagram>
</mxfile>
